<svg xmlns="http://www.w3.org/2000/svg" viewBox="0 0 100 100">
  <defs>
    <radialGradient id="g" cx="50%" cy="50%" r="50%">
      <stop offset="0%" stop-color="#7c3aed"/>
      <stop offset="100%" stop-color="#c026d3"/>
    </radialGradient>
  </defs>
  <!-- Wings -->
  <path d="M50,50 C40,30 10,20 5,40 C0,55 20,70 40,60 C45,57 50,52 50,50Z" fill="url(#g)" opacity="0.8"/>
  <path d="M50,50 C60,30 90,20 95,40 C100,55 80,70 60,60 C55,57 50,52 50,50Z" fill="url(#g)" opacity="0.8"/>
  <path d="M50,50 C43,62 15,68 12,82 C9,93 30,97 43,88 C48,83 50,70 50,50Z" fill="url(#g)" opacity="0.6"/>
  <path d="M50,50 C57,62 85,68 88,82 C91,93 70,97 57,88 C52,83 50,70 50,50Z" fill="url(#g)" opacity="0.6"/>
  <!-- Body -->
  <ellipse cx="50" cy="50" rx="3" ry="18" fill="#9d4edd"/>
</svg>
